<?xml version="1.0" encoding="utf-8"?>
<!-- Generator: Adobe Illustrator 16.0.0, SVG Export Plug-In . SVG Version: 6.00 Build 0)  -->
<!DOCTYPE svg PUBLIC "-//W3C//DTD SVG 1.1//EN" "http://www.w3.org/Graphics/SVG/1.1/DTD/svg11.dtd">
<svg version="1.1" id="Слой_6" xmlns="http://www.w3.org/2000/svg" xmlns:xlink="http://www.w3.org/1999/xlink" x="0px" y="0px"
	 width="125.625px" height="125.625px" viewBox="0 0 125.625 125.625" enable-background="new 0 0 125.625 125.625"
	 xml:space="preserve">
<g>
	<path fill="#86B7FE" d="M62.813,125.625C28.177,125.625,0,97.448,0,62.813C0,28.178,28.177,0,62.813,0
		c34.635,0,62.813,28.178,62.813,62.813C125.625,97.448,97.447,125.625,62.813,125.625z M62.813,0.625
		c-34.291,0-62.188,27.897-62.188,62.188C0.625,97.103,28.521,125,62.813,125C97.103,125,125,97.103,125,62.813
		C125,28.522,97.103,0.625,62.813,0.625z"/>
	<path fill="#1D1D1B" d="M34.342,12.864l-2.5-4.331l-0.541,0.313l2.5,4.33C33.98,13.07,34.162,12.967,34.342,12.864z M5.314,62.813
		c0-0.105,0.007-0.209,0.008-0.315h-4.99v0.625h4.99C5.321,63.02,5.314,62.917,5.314,62.813z M20.771,16.576l3.342,3.711
		c0.154-0.141,0.315-0.273,0.471-0.412l-3.348-3.718L20.771,16.576z M51.165,6.495l-1.037-4.878l-0.611,0.13l1.039,4.889
		C50.759,6.591,50.959,6.537,51.165,6.495z M39.716,10.155l-2.031-4.561l-0.571,0.254l2.032,4.564
		C39.336,10.326,39.525,10.239,39.716,10.155z M45.344,8.023L43.803,3.28l-0.595,0.193l1.543,4.75
		C44.95,8.158,45.145,8.086,45.344,8.023z M5.667,56.488l-4.961-0.521l-0.065,0.622l4.957,0.521
		C5.618,56.901,5.645,56.695,5.667,56.488z M6.638,50.547l-4.876-1.037l-0.13,0.611l4.866,1.034
		C6.54,50.952,6.594,50.751,6.638,50.547z M16.169,21.227l3.716,3.346c0.139-0.156,0.271-0.316,0.412-0.471l-3.71-3.34
		L16.169,21.227z M57.114,5.596l-0.522-4.97L55.97,0.691l0.523,4.975C56.7,5.643,56.906,5.616,57.114,5.596z M8.228,44.742
		l-4.743-1.541l-0.193,0.595l4.736,1.539C8.091,45.135,8.162,44.94,8.228,44.742z M16.487,28.761l-4.04-2.936l-0.367,0.506
		l4.045,2.939C16.247,29.101,16.364,28.928,16.487,28.761z M13.183,33.79l-4.326-2.498l-0.313,0.541l4.327,2.498
		C12.974,34.15,13.077,33.969,13.183,33.79z M10.417,39.137l-4.559-2.03l-0.254,0.571l4.555,2.028
		C10.244,39.515,10.332,39.327,10.417,39.137z M25.833,12.436l2.938,4.044c0.168-0.124,0.34-0.241,0.509-0.362l-2.941-4.049
		L25.833,12.436z M112.761,34.34l4.36-2.517l-0.313-0.541l-4.359,2.517C112.555,33.979,112.657,34.16,112.761,34.34z M115.47,39.712
		l4.591-2.044l-0.254-0.571l-4.595,2.046C115.298,39.333,115.386,39.521,115.47,39.712z M109.508,29.279l4.076-2.961l-0.367-0.506
		l-4.071,2.958C109.269,28.937,109.386,29.109,109.508,29.279z M117.602,45.342l4.772-1.551l-0.193-0.595l-4.779,1.553
		C117.467,44.948,117.538,45.143,117.602,45.342z M120.029,57.111l4.995-0.525l-0.064-0.621l-5.001,0.525
		C119.982,56.697,120.009,56.903,120.029,57.111z M119.13,51.161l4.904-1.042l-0.131-0.611l-4.914,1.044
		C119.033,50.755,119.088,50.956,119.13,51.161z M109.49,21.211l-0.418-0.465l-3.735,3.364c0.14,0.154,0.272,0.315,0.411,0.471
		L109.49,21.211z M68.527,5.597c0.208,0.021,0.413,0.048,0.621,0.07l0.525-5.001L69.053,0.6L68.527,5.597z M80.299,8.028
		c0.198,0.063,0.394,0.135,0.591,0.2l1.554-4.78L81.85,3.255L80.299,8.028z M74.476,6.498c0.205,0.042,0.405,0.096,0.609,0.141
		l1.045-4.915l-0.611-0.13L74.476,6.498z M101.054,19.885c0.155,0.139,0.316,0.271,0.471,0.412l3.364-3.736l-0.465-0.418
		L101.054,19.885z M62.501,5.32c0.104,0,0.208-0.008,0.313-0.008s0.208,0.007,0.313,0.008V0.314h-0.625V5.32z M85.925,10.161
		c0.19,0.084,0.379,0.171,0.568,0.257l2.046-4.594l-0.57-0.254L85.925,10.161z M96.357,16.125c0.169,0.122,0.342,0.239,0.51,0.362
		l2.958-4.071l-0.506-0.367L96.357,16.125z M91.297,12.871c0.181,0.104,0.362,0.207,0.542,0.312l2.516-4.358l-0.541-0.313
		L91.297,12.871z M37.12,119.768l0.571,0.254l2.025-4.549c-0.191-0.084-0.38-0.172-0.57-0.258L37.12,119.768z M101.054,105.742
		l3.358,3.729l0.465-0.418l-3.353-3.724C101.37,105.47,101.21,105.603,101.054,105.742z M96.355,109.504l2.95,4.061l0.506-0.367
		l-2.947-4.056C96.697,109.265,96.524,109.382,96.355,109.504z M105.34,101.514l3.725,3.354l0.418-0.465l-3.731-3.359
		C105.612,101.199,105.479,101.36,105.34,101.514z M91.293,112.758L93.8,117.1l0.541-0.313l-2.506-4.341
		C91.655,112.552,91.475,112.655,91.293,112.758z M109.146,96.856l4.061,2.95l0.367-0.506l-4.065-2.954
		C109.388,96.516,109.271,96.688,109.146,96.856z M80.29,117.602l1.544,4.753l0.594-0.193l-1.546-4.76
		C80.684,117.467,80.488,117.539,80.29,117.602z M85.919,115.469l2.036,4.572l0.57-0.254l-2.037-4.576
		C86.299,115.297,86.11,115.385,85.919,115.469z M117.402,80.874l4.774,1.551l0.193-0.594l-4.768-1.549
		C117.539,80.48,117.468,80.675,117.402,80.874z M118.99,75.069l4.911,1.044l0.131-0.611l-4.901-1.042
		C119.089,74.665,119.034,74.865,118.99,75.069z M119.96,69.127l5,0.525l0.064-0.621l-4.995-0.525
		C120.009,68.714,119.983,68.92,119.96,69.127z M5.597,68.511l-4.955,0.521l0.065,0.621l4.958-0.521
		C5.644,68.924,5.618,68.719,5.597,68.511z M120.305,62.498c0,0.105,0.008,0.209,0.008,0.315c0,0.104-0.007,0.207-0.008,0.311h5.029
		v-0.625H120.305z M74.467,119.131l1.038,4.884l0.611-0.131l-1.04-4.894C74.872,119.036,74.672,119.089,74.467,119.131z
		 M115.214,86.479l4.585,2.041l0.254-0.57l-4.581-2.04C115.388,86.1,115.3,86.29,115.214,86.479z M112.451,91.826l4.348,2.51
		l0.313-0.541l-4.349-2.511C112.659,91.464,112.557,91.646,112.451,91.826z M12.869,91.292L8.55,93.785l0.313,0.541l4.317-2.492
		C13.075,91.654,12.972,91.472,12.869,91.292z M68.515,120.032l0.522,4.974l0.621-0.064l-0.523-4.979
		C68.928,119.985,68.722,120.011,68.515,120.032z M20.779,109.04l0.465,0.418l3.338-3.708c-0.156-0.139-0.317-0.271-0.471-0.411
		L20.779,109.04z M16.175,104.389l0.418,0.465l3.701-3.332c-0.141-0.154-0.273-0.315-0.412-0.471L16.175,104.389z M6.497,74.464
		l-4.863,1.033l0.13,0.611l4.874-1.036C6.593,74.869,6.539,74.668,6.497,74.464z M8.026,80.289l-4.729,1.536l0.193,0.594
		l4.735-1.539C8.161,80.682,8.089,80.487,8.026,80.289z M10.158,85.916L5.611,87.94l0.254,0.57l4.55-2.025
		C10.329,86.294,10.242,86.106,10.158,85.916z M16.121,96.351l-4.038,2.934l0.367,0.506l4.033-2.93
		C16.36,96.693,16.243,96.521,16.121,96.351z M55.981,124.921l0.622,0.064l0.521-4.953c-0.208-0.021-0.414-0.047-0.621-0.069
		L55.981,124.921z M62.501,120.307v5.008h0.625v-5.008c-0.104,0-0.208,0.008-0.313,0.008S62.606,120.307,62.501,120.307z
		 M49.526,123.867l0.611,0.131l1.034-4.863c-0.205-0.042-0.405-0.097-0.609-0.141L49.526,123.867z M43.216,122.142l0.595,0.193
		l1.537-4.729c-0.199-0.063-0.395-0.136-0.592-0.201L43.216,122.142z M25.84,113.18l0.506,0.367l2.934-4.037
		c-0.169-0.122-0.342-0.239-0.51-0.362L25.84,113.18z M31.309,116.77l0.541,0.313l2.493-4.318c-0.181-0.104-0.362-0.206-0.542-0.312
		L31.309,116.77z"/>
	<path fill="#86B7FE" d="M8.232,32.375l7.591,4.383c0.304-0.546,0.613-1.09,0.936-1.625L9.169,30.75L8.232,32.375z M36.769,15.816
		l-4.385-7.595L30.76,9.158l4.384,7.593C35.678,16.429,36.222,16.12,36.769,15.816z M9.064,62.813c0-0.316,0.019-0.626,0.024-0.94
		H0.332v1.875h8.756C9.083,63.436,9.064,63.126,9.064,62.813z M88.871,15.823c0.546,0.304,1.09,0.613,1.624,0.935l4.4-7.622
		l-1.623-0.938L88.871,15.823z M61.876,9.086c0.313-0.005,0.623-0.024,0.938-0.024c0.314,0,0.624,0.019,0.938,0.024V0.314h-1.875
		V9.086z M117.434,32.365l-0.938-1.624l-7.623,4.401c0.322,0.535,0.632,1.079,0.936,1.625L117.434,32.365z M108.875,90.482
		l7.611,4.395l0.938-1.623l-7.613-4.396C109.506,89.404,109.197,89.948,108.875,90.482z M116.539,61.873
		c0.005,0.313,0.023,0.624,0.023,0.94c0,0.313-0.019,0.623-0.023,0.936h8.795v-1.875H116.539z M88.867,109.806l4.392,7.606
		l1.623-0.938l-4.39-7.604C89.957,109.194,89.414,109.502,88.867,109.806z M8.238,93.244l0.938,1.623l7.581-4.377
		c-0.323-0.534-0.631-1.078-0.936-1.624L8.238,93.244z M61.876,116.542v8.773h1.875v-8.773c-0.313,0.005-0.623,0.023-0.938,0.023
		C62.5,116.565,62.19,116.546,61.876,116.542z M30.768,116.458l1.624,0.938l4.378-7.583c-0.547-0.304-1.091-0.613-1.625-0.936
		L30.768,116.458z"/>
	<g>
		<g>
			<g>
				<path d="M17.531,62.172c0,3.458-1.383,5.186-4.15,5.186c-0.482,0-0.865-0.039-1.15-0.119v-0.865
					c0.336,0.104,0.713,0.156,1.137,0.156c1,0,1.756-0.297,2.27-0.898c0.508-0.596,0.787-1.516,0.83-2.75h-0.074
					c-0.227,0.334-0.531,0.588-0.912,0.764c-0.379,0.174-0.805,0.264-1.279,0.264c-0.811,0-1.449-0.234-1.924-0.701
					c-0.477-0.469-0.713-1.122-0.713-1.958c0-0.92,0.264-1.645,0.797-2.178c0.529-0.531,1.23-0.797,2.094-0.797
					c0.623,0,1.166,0.152,1.631,0.461c0.461,0.309,0.82,0.758,1.068,1.348C17.404,60.676,17.531,61.373,17.531,62.172z
					 M14.455,59.135c-0.594,0-1.055,0.184-1.379,0.555c-0.324,0.369-0.486,0.885-0.486,1.547c0,0.58,0.148,1.035,0.449,1.369
					c0.299,0.331,0.754,0.499,1.367,0.499c0.379,0,0.729-0.076,1.047-0.223c0.32-0.148,0.57-0.354,0.752-0.612
					c0.186-0.256,0.275-0.527,0.275-0.811c0-0.424-0.086-0.811-0.254-1.172c-0.174-0.357-0.41-0.641-0.717-0.846
					S14.853,59.135,14.455,59.135z"/>
			</g>
		</g>
		<g>
			<g>
				<path d="M21.312,43.883h-1.014v-6.297c0-0.521,0.016-1.018,0.051-1.486c-0.088,0.084-0.186,0.174-0.295,0.266
					c-0.107,0.094-0.604,0.486-1.488,1.18l-0.549-0.689l2.42-1.809h0.875V43.883z"/>
			</g>
			<g>
				<path d="M30.839,39.455c0,1.525-0.248,2.666-0.744,3.42c-0.502,0.752-1.26,1.129-2.285,1.129c-0.984,0-1.732-0.385-2.244-1.158
					c-0.512-0.771-0.768-1.902-0.768-3.391c0-1.541,0.248-2.682,0.742-3.43c0.498-0.742,1.252-1.115,2.27-1.115
					c0.99,0,1.744,0.389,2.26,1.164C30.582,36.854,30.839,37.98,30.839,39.455z M25.847,39.455c0,1.283,0.156,2.219,0.469,2.807
					c0.313,0.584,0.809,0.879,1.494,0.879c0.689,0,1.191-0.297,1.502-0.891c0.311-0.596,0.465-1.527,0.465-2.795
					c0-1.27-0.154-2.201-0.465-2.791s-0.813-0.885-1.502-0.885c-0.686,0-1.182,0.291-1.494,0.873
					C26.003,37.236,25.847,38.168,25.847,39.455z"/>
			</g>
		</g>
		<g>
			<g>
				<path d="M21.017,81.639c0.832,0,1.49,0.184,1.979,0.561c0.488,0.373,0.732,0.891,0.732,1.553c0,0.434-0.139,0.83-0.42,1.191
					c-0.277,0.359-0.725,0.684-1.338,0.977c0.742,0.344,1.27,0.703,1.582,1.078c0.313,0.377,0.469,0.816,0.469,1.309
					c0,0.734-0.266,1.32-0.793,1.758c-0.529,0.436-1.254,0.656-2.174,0.656c-0.975,0-1.725-0.207-2.25-0.621
					c-0.525-0.412-0.787-0.996-0.787-1.754c0-1.016,0.637-1.801,1.912-2.365c-0.576-0.314-0.986-0.65-1.236-1.018
					c-0.252-0.367-0.375-0.771-0.375-1.223c0-0.641,0.244-1.152,0.734-1.531C19.539,81.827,20.193,81.639,21.017,81.639z
					 M19.041,88.372c0,0.482,0.174,0.859,0.523,1.127c0.348,0.27,0.834,0.406,1.465,0.406c0.619,0,1.102-0.141,1.449-0.426
					c0.346-0.279,0.518-0.668,0.518-1.156c0-0.393-0.162-0.742-0.488-1.045c-0.324-0.303-0.889-0.598-1.699-0.885
					c-0.619,0.26-1.068,0.543-1.35,0.855C19.181,87.561,19.041,87.934,19.041,88.372z M21.003,82.454
					c-0.521,0-0.93,0.119-1.225,0.361c-0.297,0.242-0.445,0.566-0.445,0.967c0,0.371,0.123,0.689,0.371,0.955
					c0.244,0.266,0.699,0.531,1.361,0.797c0.596-0.24,1.018-0.5,1.266-0.777c0.248-0.279,0.371-0.604,0.371-0.975
					c0-0.404-0.152-0.73-0.451-0.969C21.949,82.573,21.531,82.454,21.003,82.454z"/>
			</g>
		</g>
		<g>
			<g>
				<path d="M38.935,26.783h-1.012v-6.297c0-0.523,0.014-1.018,0.049-1.488c-0.086,0.086-0.184,0.176-0.295,0.266
					c-0.107,0.096-0.602,0.486-1.486,1.182l-0.549-0.689l2.42-1.809h0.873V26.783z"/>
			</g>
			<g>
				<path d="M46.251,26.783h-1.014v-6.297c0-0.523,0.02-1.018,0.051-1.488c-0.086,0.086-0.184,0.176-0.291,0.266
					c-0.111,0.096-0.605,0.486-1.488,1.182l-0.549-0.689l2.416-1.809h0.875V26.783z"/>
			</g>
		</g>
		<g>
			<g>
				<path d="M36.833,107.688l3.787-7.91h-4.979v-0.924h6.078v0.805l-3.736,8.029H36.833z"/>
			</g>
		</g>
		<g>
			<g>
				<path d="M59.933,110.168c0-1.738,0.352-3.037,1.047-3.896c0.697-0.859,1.731-1.289,3.098-1.289c0.471,0,0.84,0.039,1.113,0.113
					v0.863c-0.324-0.1-0.688-0.152-1.102-0.152c-0.979,0-1.727,0.297-2.243,0.885c-0.516,0.594-0.801,1.518-0.852,2.785h0.076
					c0.459-0.693,1.184-1.037,2.174-1.037c0.822,0,1.467,0.238,1.941,0.719c0.473,0.477,0.709,1.129,0.709,1.953
					c0,0.918-0.256,1.637-0.777,2.162c-0.518,0.527-1.221,0.791-2.104,0.791c-0.948,0-1.696-0.344-2.25-1.031
					S59.933,111.389,59.933,110.168z M63.004,113.213c0.59,0,1.051-0.184,1.377-0.543c0.328-0.359,0.49-0.881,0.49-1.559
					c0-0.586-0.152-1.047-0.455-1.381c-0.305-0.334-0.76-0.502-1.361-0.502c-0.377,0-0.721,0.074-1.034,0.227
					c-0.313,0.146-0.561,0.352-0.744,0.615c-0.188,0.26-0.281,0.533-0.281,0.814c0,0.416,0.086,0.801,0.25,1.158
					c0.168,0.361,0.406,0.645,0.711,0.854C62.263,113.108,62.611,113.213,63.004,113.213z"/>
			</g>
		</g>
		<g>
			<g>
				<path d="M86.832,102.288c0.961,0,1.719,0.23,2.271,0.693c0.553,0.461,0.828,1.092,0.828,1.895c0,0.912-0.301,1.631-0.904,2.15
					c-0.6,0.52-1.43,0.779-2.488,0.779c-1.031,0-1.814-0.162-2.357-0.477v-0.967c0.291,0.182,0.654,0.32,1.088,0.426
					c0.434,0.102,0.859,0.152,1.283,0.152c0.732,0,1.301-0.164,1.709-0.502c0.406-0.332,0.605-0.814,0.605-1.451
					c0-1.23-0.779-1.848-2.34-1.848c-0.398,0-0.926,0.059-1.588,0.18l-0.537-0.338l0.344-4.131h4.541v0.926h-3.654l-0.232,2.65
					C85.879,102.336,86.357,102.288,86.832,102.288z"/>
			</g>
		</g>
		<g>
			<g>
				<path d="M108.086,88.553h-1.357v2.031h-0.99v-2.031h-4.445v-0.875l4.336-5.977h1.1v5.941h1.357V88.553z M105.738,87.643v-2.938
					c0-0.578,0.02-1.229,0.063-1.953h-0.049c-0.201,0.385-0.391,0.707-0.564,0.961l-2.855,3.93H105.738z"/>
			</g>
		</g>
		<g>
			<g>
				<path d="M113.785,60.471c0,0.564-0.168,1.025-0.492,1.385c-0.326,0.357-0.793,0.598-1.391,0.719v0.049
					c0.734,0.09,1.277,0.313,1.633,0.676c0.352,0.363,0.527,0.84,0.527,1.426c0,0.844-0.303,1.488-0.902,1.945
					c-0.605,0.451-1.463,0.678-2.574,0.678c-0.488,0-0.928-0.033-1.328-0.104c-0.402-0.074-0.797-0.195-1.172-0.371v-0.955
					c0.395,0.188,0.816,0.334,1.266,0.43c0.445,0.1,0.871,0.148,1.27,0.148c1.576,0,2.367-0.598,2.367-1.795
					c0-1.07-0.869-1.607-2.613-1.607h-0.898V62.23h0.914c0.713,0,1.273-0.152,1.695-0.457c0.414-0.305,0.625-0.725,0.625-1.266
					c0-0.432-0.154-0.77-0.463-1.016c-0.305-0.244-0.721-0.367-1.248-0.367c-0.398,0-0.775,0.051-1.127,0.156
					c-0.357,0.104-0.762,0.297-1.213,0.58l-0.525-0.676c0.377-0.289,0.807-0.514,1.299-0.676c0.486-0.164,1.004-0.244,1.543-0.244
					c0.889,0,1.578,0.195,2.07,0.588C113.535,59.248,113.785,59.787,113.785,60.471z"/>
			</g>
		</g>
		<g>
			<g>
				<path d="M107.652,43.875h-6.008v-0.863l2.406-2.338c0.734-0.717,1.219-1.229,1.449-1.535c0.234-0.305,0.41-0.605,0.525-0.896
					c0.117-0.289,0.176-0.602,0.176-0.934c0-0.473-0.148-0.846-0.443-1.123c-0.299-0.275-0.709-0.412-1.23-0.412
					c-0.379,0-0.738,0.061-1.08,0.182c-0.34,0.119-0.717,0.34-1.133,0.656l-0.553-0.682c0.846-0.676,1.762-1.014,2.75-1.014
					c0.859,0,1.533,0.211,2.021,0.635c0.488,0.426,0.729,0.998,0.729,1.713c0,0.563-0.162,1.115-0.486,1.664
					c-0.326,0.545-0.934,1.24-1.824,2.078l-2.002,1.891v0.049h4.703V43.875z"/>
			</g>
		</g>
		<g>
			<g>
				<path d="M87.809,26.783h-1.014v-6.297c0-0.523,0.018-1.018,0.051-1.488c-0.088,0.086-0.186,0.176-0.293,0.266
					c-0.111,0.096-0.605,0.486-1.49,1.182l-0.549-0.689l2.418-1.809h0.877V26.783z"/>
			</g>
		</g>
		<g>
			<g>
				<path d="M60.009,20.525h-1.014v-6.299c0-0.521,0.016-1.018,0.051-1.486c-0.086,0.086-0.184,0.174-0.295,0.266
					c-0.107,0.094-0.604,0.486-1.488,1.18l-0.549-0.689l2.42-1.807h0.875V20.525z"/>
			</g>
			<g>
				<path d="M69.488,20.525h-6.004v-0.863l2.404-2.34c0.734-0.717,1.217-1.229,1.451-1.535c0.234-0.305,0.41-0.605,0.521-0.895
					c0.117-0.291,0.176-0.602,0.176-0.938c0-0.471-0.146-0.846-0.441-1.119c-0.299-0.277-0.705-0.414-1.232-0.414
					c-0.377,0-0.738,0.061-1.078,0.182s-0.717,0.34-1.135,0.656l-0.549-0.682c0.842-0.678,1.76-1.016,2.748-1.016
					c0.861,0,1.533,0.213,2.02,0.637c0.488,0.424,0.732,0.998,0.732,1.713c0,0.561-0.164,1.115-0.488,1.664
					c-0.328,0.547-0.934,1.24-1.826,2.078l-1.998,1.891v0.049h4.699V20.525z"/>
			</g>
		</g>
	</g>
</g>
</svg>
