<?xml version="1.0" encoding="utf-8"?>
<!-- Generator: Adobe Illustrator 16.0.0, SVG Export Plug-In . SVG Version: 6.00 Build 0)  -->
<!DOCTYPE svg PUBLIC "-//W3C//DTD SVG 1.1//EN" "http://www.w3.org/Graphics/SVG/1.1/DTD/svg11.dtd">
<svg version="1.1" xmlns="http://www.w3.org/2000/svg" xmlns:xlink="http://www.w3.org/1999/xlink" x="0px" y="0px"
	 width="125.625px" height="125.625px" viewBox="0 0 125.625 125.625" enable-background="new 0 0 125.625 125.625"
	 xml:space="preserve">
<g id="Слой_6" display="none">
	<g display="inline">
		<path fill="#86B7FE" d="M62.813,125.625C28.177,125.625,0,97.448,0,62.813C0,28.178,28.177,0,62.813,0
			c34.635,0,62.813,28.178,62.813,62.813C125.625,97.448,97.447,125.625,62.813,125.625z M62.813,0.625
			c-34.291,0-62.188,27.897-62.188,62.188C0.625,97.103,28.521,125,62.813,125C97.103,125,125,97.103,125,62.813
			C125,28.522,97.103,0.625,62.813,0.625z"/>
		<path fill="#1D1D1B" d="M34.342,12.864l-2.5-4.331l-0.541,0.313l2.5,4.33C33.98,13.07,34.162,12.967,34.342,12.864z M5.314,62.813
			c0-0.105,0.007-0.209,0.008-0.315h-4.99v0.625h4.99C5.321,63.02,5.314,62.917,5.314,62.813z M20.771,16.576l3.342,3.711
			c0.154-0.141,0.315-0.273,0.471-0.412l-3.348-3.718L20.771,16.576z M51.165,6.495l-1.037-4.878l-0.611,0.13l1.039,4.889
			C50.759,6.591,50.959,6.537,51.165,6.495z M39.716,10.155l-2.031-4.561l-0.571,0.254l2.032,4.564
			C39.336,10.326,39.525,10.239,39.716,10.155z M45.344,8.023L43.803,3.28l-0.595,0.193l1.543,4.75
			C44.95,8.158,45.145,8.086,45.344,8.023z M5.667,56.488l-4.961-0.521l-0.065,0.622l4.957,0.521
			C5.618,56.901,5.645,56.695,5.667,56.488z M6.638,50.547l-4.876-1.037l-0.13,0.611l4.866,1.034
			C6.54,50.952,6.594,50.751,6.638,50.547z M16.169,21.227l3.716,3.346c0.139-0.156,0.271-0.316,0.412-0.471l-3.71-3.34
			L16.169,21.227z M57.114,5.596l-0.522-4.97L55.97,0.691l0.523,4.975C56.7,5.643,56.906,5.616,57.114,5.596z M8.228,44.742
			l-4.743-1.541l-0.193,0.595l4.736,1.539C8.091,45.135,8.162,44.94,8.228,44.742z M16.487,28.761l-4.04-2.936l-0.367,0.506
			l4.045,2.939C16.247,29.101,16.364,28.928,16.487,28.761z M13.183,33.79l-4.326-2.498l-0.313,0.541l4.327,2.498
			C12.974,34.15,13.077,33.969,13.183,33.79z M10.417,39.137l-4.559-2.03l-0.254,0.571l4.555,2.028
			C10.244,39.515,10.332,39.327,10.417,39.137z M25.833,12.436l2.938,4.044c0.168-0.124,0.34-0.241,0.509-0.362l-2.941-4.049
			L25.833,12.436z M112.761,34.34l4.36-2.517l-0.313-0.541l-4.359,2.517C112.555,33.979,112.657,34.16,112.761,34.34z
			 M115.47,39.712l4.591-2.044l-0.254-0.571l-4.595,2.046C115.298,39.333,115.386,39.521,115.47,39.712z M109.508,29.279
			l4.076-2.961l-0.367-0.506l-4.071,2.958C109.269,28.937,109.386,29.109,109.508,29.279z M117.602,45.342l4.772-1.551l-0.193-0.595
			l-4.779,1.553C117.467,44.948,117.538,45.143,117.602,45.342z M120.029,57.111l4.995-0.525l-0.064-0.621l-5.001,0.525
			C119.982,56.697,120.009,56.903,120.029,57.111z M119.13,51.161l4.904-1.042l-0.131-0.611l-4.914,1.044
			C119.033,50.755,119.088,50.956,119.13,51.161z M109.49,21.211l-0.418-0.465l-3.735,3.364c0.14,0.154,0.272,0.315,0.411,0.471
			L109.49,21.211z M68.527,5.597c0.208,0.021,0.413,0.048,0.621,0.07l0.525-5.001L69.053,0.6L68.527,5.597z M80.299,8.028
			c0.198,0.063,0.394,0.135,0.591,0.2l1.554-4.78L81.85,3.255L80.299,8.028z M74.476,6.498c0.205,0.042,0.405,0.096,0.609,0.141
			l1.045-4.915l-0.611-0.13L74.476,6.498z M101.054,19.885c0.155,0.139,0.316,0.271,0.471,0.412l3.364-3.736l-0.465-0.418
			L101.054,19.885z M62.501,5.32c0.104,0,0.208-0.008,0.313-0.008s0.208,0.007,0.313,0.008V0.314h-0.625V5.32z M85.925,10.161
			c0.19,0.084,0.379,0.171,0.568,0.257l2.046-4.594l-0.57-0.254L85.925,10.161z M96.357,16.125c0.169,0.122,0.342,0.239,0.51,0.362
			l2.958-4.071l-0.506-0.367L96.357,16.125z M91.297,12.871c0.181,0.104,0.362,0.207,0.542,0.312l2.516-4.358l-0.541-0.313
			L91.297,12.871z M37.12,119.768l0.571,0.254l2.025-4.549c-0.191-0.084-0.38-0.172-0.57-0.258L37.12,119.768z M101.054,105.742
			l3.358,3.729l0.465-0.418l-3.353-3.724C101.37,105.47,101.21,105.603,101.054,105.742z M96.355,109.504l2.95,4.061l0.506-0.367
			l-2.947-4.056C96.697,109.265,96.524,109.382,96.355,109.504z M105.34,101.514l3.725,3.354l0.418-0.465l-3.731-3.359
			C105.612,101.199,105.479,101.36,105.34,101.514z M91.293,112.758L93.8,117.1l0.541-0.313l-2.506-4.341
			C91.655,112.552,91.475,112.655,91.293,112.758z M109.146,96.856l4.061,2.95l0.367-0.506l-4.065-2.954
			C109.388,96.516,109.271,96.688,109.146,96.856z M80.29,117.602l1.544,4.753l0.594-0.193l-1.546-4.76
			C80.684,117.467,80.488,117.539,80.29,117.602z M85.919,115.469l2.036,4.572l0.57-0.254l-2.037-4.576
			C86.299,115.297,86.11,115.385,85.919,115.469z M117.402,80.874l4.774,1.551l0.193-0.594l-4.768-1.549
			C117.539,80.48,117.468,80.675,117.402,80.874z M118.99,75.069l4.911,1.044l0.131-0.611l-4.901-1.042
			C119.089,74.665,119.034,74.865,118.99,75.069z M119.96,69.127l5,0.525l0.064-0.621l-4.995-0.525
			C120.009,68.714,119.983,68.92,119.96,69.127z M5.597,68.511l-4.955,0.521l0.065,0.621l4.958-0.521
			C5.644,68.924,5.618,68.719,5.597,68.511z M120.305,62.498c0,0.105,0.008,0.209,0.008,0.315c0,0.104-0.007,0.207-0.008,0.311
			h5.029v-0.625H120.305z M74.467,119.131l1.038,4.884l0.611-0.131l-1.04-4.894C74.872,119.036,74.672,119.089,74.467,119.131z
			 M115.214,86.479l4.585,2.041l0.254-0.57l-4.581-2.04C115.388,86.1,115.3,86.29,115.214,86.479z M112.451,91.826l4.348,2.51
			l0.313-0.541l-4.349-2.511C112.659,91.464,112.557,91.646,112.451,91.826z M12.869,91.292L8.55,93.785l0.313,0.541l4.317-2.492
			C13.075,91.654,12.972,91.472,12.869,91.292z M68.515,120.032l0.522,4.974l0.621-0.064l-0.523-4.979
			C68.928,119.985,68.722,120.011,68.515,120.032z M20.779,109.04l0.465,0.418l3.338-3.708c-0.156-0.139-0.317-0.271-0.471-0.411
			L20.779,109.04z M16.175,104.389l0.418,0.465l3.701-3.332c-0.141-0.154-0.273-0.315-0.412-0.471L16.175,104.389z M6.497,74.464
			l-4.863,1.033l0.13,0.611l4.874-1.036C6.593,74.869,6.539,74.668,6.497,74.464z M8.026,80.289l-4.729,1.536l0.193,0.594
			l4.735-1.539C8.161,80.682,8.089,80.487,8.026,80.289z M10.158,85.916L5.611,87.94l0.254,0.57l4.55-2.025
			C10.329,86.294,10.242,86.106,10.158,85.916z M16.121,96.351l-4.038,2.934l0.367,0.506l4.033-2.93
			C16.36,96.693,16.243,96.521,16.121,96.351z M55.981,124.921l0.622,0.064l0.521-4.953c-0.208-0.021-0.414-0.047-0.621-0.069
			L55.981,124.921z M62.501,120.307v5.008h0.625v-5.008c-0.104,0-0.208,0.008-0.313,0.008S62.606,120.307,62.501,120.307z
			 M49.526,123.867l0.611,0.131l1.034-4.863c-0.205-0.042-0.405-0.097-0.609-0.141L49.526,123.867z M43.216,122.142l0.595,0.193
			l1.537-4.729c-0.199-0.063-0.395-0.136-0.592-0.201L43.216,122.142z M25.84,113.18l0.506,0.367l2.934-4.037
			c-0.169-0.122-0.342-0.239-0.51-0.362L25.84,113.18z M31.309,116.77l0.541,0.313l2.493-4.318
			c-0.181-0.104-0.362-0.206-0.542-0.312L31.309,116.77z"/>
		<path fill="#86B7FE" d="M8.232,32.375l7.591,4.383c0.304-0.546,0.613-1.09,0.936-1.625L9.169,30.75L8.232,32.375z M36.769,15.816
			l-4.385-7.595L30.76,9.158l4.384,7.593C35.678,16.429,36.222,16.12,36.769,15.816z M9.064,62.813c0-0.316,0.019-0.626,0.024-0.94
			H0.332v1.875h8.756C9.083,63.436,9.064,63.126,9.064,62.813z M88.871,15.823c0.546,0.304,1.09,0.613,1.624,0.935l4.4-7.622
			l-1.623-0.938L88.871,15.823z M61.876,9.086c0.313-0.005,0.623-0.024,0.938-0.024c0.314,0,0.624,0.019,0.938,0.024V0.314h-1.875
			V9.086z M117.434,32.365l-0.938-1.624l-7.623,4.401c0.322,0.535,0.632,1.079,0.936,1.625L117.434,32.365z M108.875,90.482
			l7.611,4.395l0.938-1.623l-7.613-4.396C109.506,89.404,109.197,89.948,108.875,90.482z M116.539,61.873
			c0.005,0.313,0.023,0.624,0.023,0.94c0,0.313-0.019,0.623-0.023,0.936h8.795v-1.875H116.539z M88.867,109.806l4.392,7.606
			l1.623-0.938l-4.39-7.604C89.957,109.194,89.414,109.502,88.867,109.806z M8.238,93.244l0.938,1.623l7.581-4.377
			c-0.323-0.534-0.631-1.078-0.936-1.624L8.238,93.244z M61.876,116.542v8.773h1.875v-8.773c-0.313,0.005-0.623,0.023-0.938,0.023
			C62.5,116.565,62.19,116.546,61.876,116.542z M30.768,116.458l1.624,0.938l4.378-7.583c-0.547-0.304-1.091-0.613-1.625-0.936
			L30.768,116.458z"/>
		<g>
			<g>
				<g>
					<path d="M17.531,62.172c0,3.458-1.383,5.186-4.15,5.186c-0.482,0-0.865-0.039-1.15-0.119v-0.865
						c0.336,0.104,0.713,0.156,1.137,0.156c1,0,1.756-0.297,2.27-0.898c0.508-0.596,0.787-1.516,0.83-2.75h-0.074
						c-0.227,0.334-0.531,0.588-0.912,0.764c-0.379,0.174-0.805,0.264-1.279,0.264c-0.811,0-1.449-0.234-1.924-0.701
						c-0.477-0.469-0.713-1.122-0.713-1.958c0-0.92,0.264-1.645,0.797-2.178c0.529-0.531,1.23-0.797,2.094-0.797
						c0.623,0,1.166,0.152,1.631,0.461c0.461,0.309,0.82,0.758,1.068,1.348C17.404,60.676,17.531,61.373,17.531,62.172z
						 M14.455,59.135c-0.594,0-1.055,0.184-1.379,0.555c-0.324,0.369-0.486,0.885-0.486,1.547c0,0.58,0.148,1.035,0.449,1.369
						c0.299,0.331,0.754,0.499,1.367,0.499c0.379,0,0.729-0.076,1.047-0.223c0.32-0.148,0.57-0.354,0.752-0.612
						c0.186-0.256,0.275-0.527,0.275-0.811c0-0.424-0.086-0.811-0.254-1.172c-0.174-0.357-0.41-0.641-0.717-0.846
						S14.853,59.135,14.455,59.135z"/>
				</g>
			</g>
			<g>
				<g>
					<path d="M21.312,43.883h-1.014v-6.297c0-0.521,0.016-1.018,0.051-1.486c-0.088,0.084-0.186,0.174-0.295,0.266
						c-0.107,0.094-0.604,0.486-1.488,1.18l-0.549-0.689l2.42-1.809h0.875V43.883z"/>
				</g>
				<g>
					<path d="M30.839,39.455c0,1.525-0.248,2.666-0.744,3.42c-0.502,0.752-1.26,1.129-2.285,1.129c-0.984,0-1.732-0.385-2.244-1.158
						c-0.512-0.771-0.768-1.902-0.768-3.391c0-1.541,0.248-2.682,0.742-3.43c0.498-0.742,1.252-1.115,2.27-1.115
						c0.99,0,1.744,0.389,2.26,1.164C30.582,36.854,30.839,37.98,30.839,39.455z M25.847,39.455c0,1.283,0.156,2.219,0.469,2.807
						c0.313,0.584,0.809,0.879,1.494,0.879c0.689,0,1.191-0.297,1.502-0.891c0.311-0.596,0.465-1.527,0.465-2.795
						c0-1.27-0.154-2.201-0.465-2.791s-0.813-0.885-1.502-0.885c-0.686,0-1.182,0.291-1.494,0.873
						C26.003,37.236,25.847,38.168,25.847,39.455z"/>
				</g>
			</g>
			<g>
				<g>
					<path d="M21.017,81.639c0.832,0,1.49,0.184,1.979,0.561c0.488,0.373,0.732,0.891,0.732,1.553c0,0.434-0.139,0.83-0.42,1.191
						c-0.277,0.359-0.725,0.684-1.338,0.977c0.742,0.344,1.27,0.703,1.582,1.078c0.313,0.377,0.469,0.816,0.469,1.309
						c0,0.734-0.266,1.32-0.793,1.758c-0.529,0.436-1.254,0.656-2.174,0.656c-0.975,0-1.725-0.207-2.25-0.621
						c-0.525-0.412-0.787-0.996-0.787-1.754c0-1.016,0.637-1.801,1.912-2.365c-0.576-0.314-0.986-0.65-1.236-1.018
						c-0.252-0.367-0.375-0.771-0.375-1.223c0-0.641,0.244-1.152,0.734-1.531C19.539,81.827,20.193,81.639,21.017,81.639z
						 M19.041,88.372c0,0.482,0.174,0.859,0.523,1.127c0.348,0.27,0.834,0.406,1.465,0.406c0.619,0,1.102-0.141,1.449-0.426
						c0.346-0.279,0.518-0.668,0.518-1.156c0-0.393-0.162-0.742-0.488-1.045c-0.324-0.303-0.889-0.598-1.699-0.885
						c-0.619,0.26-1.068,0.543-1.35,0.855C19.181,87.561,19.041,87.934,19.041,88.372z M21.003,82.454
						c-0.521,0-0.93,0.119-1.225,0.361c-0.297,0.242-0.445,0.566-0.445,0.967c0,0.371,0.123,0.689,0.371,0.955
						c0.244,0.266,0.699,0.531,1.361,0.797c0.596-0.24,1.018-0.5,1.266-0.777c0.248-0.279,0.371-0.604,0.371-0.975
						c0-0.404-0.152-0.73-0.451-0.969C21.949,82.573,21.531,82.454,21.003,82.454z"/>
				</g>
			</g>
			<g>
				<g>
					<path d="M38.935,26.783h-1.012v-6.297c0-0.523,0.014-1.018,0.049-1.488c-0.086,0.086-0.184,0.176-0.295,0.266
						c-0.107,0.096-0.602,0.486-1.486,1.182l-0.549-0.689l2.42-1.809h0.873V26.783z"/>
				</g>
				<g>
					<path d="M46.251,26.783h-1.014v-6.297c0-0.523,0.02-1.018,0.051-1.488c-0.086,0.086-0.184,0.176-0.291,0.266
						c-0.111,0.096-0.605,0.486-1.488,1.182l-0.549-0.689l2.416-1.809h0.875V26.783z"/>
				</g>
			</g>
			<g>
				<g>
					<path d="M36.833,107.688l3.787-7.91h-4.979v-0.924h6.078v0.805l-3.736,8.029H36.833z"/>
				</g>
			</g>
			<g>
				<g>
					<path d="M59.933,110.168c0-1.738,0.352-3.037,1.047-3.896c0.697-0.859,1.731-1.289,3.098-1.289c0.471,0,0.84,0.039,1.113,0.113
						v0.863c-0.324-0.1-0.688-0.152-1.102-0.152c-0.979,0-1.727,0.297-2.243,0.885c-0.516,0.594-0.801,1.518-0.852,2.785h0.076
						c0.459-0.693,1.184-1.037,2.174-1.037c0.822,0,1.467,0.238,1.941,0.719c0.473,0.477,0.709,1.129,0.709,1.953
						c0,0.918-0.256,1.637-0.777,2.162c-0.518,0.527-1.221,0.791-2.104,0.791c-0.948,0-1.696-0.344-2.25-1.031
						S59.933,111.389,59.933,110.168z M63.004,113.213c0.59,0,1.051-0.184,1.377-0.543c0.328-0.359,0.49-0.881,0.49-1.559
						c0-0.586-0.152-1.047-0.455-1.381c-0.305-0.334-0.76-0.502-1.361-0.502c-0.377,0-0.721,0.074-1.034,0.227
						c-0.313,0.146-0.561,0.352-0.744,0.615c-0.188,0.26-0.281,0.533-0.281,0.814c0,0.416,0.086,0.801,0.25,1.158
						c0.168,0.361,0.406,0.645,0.711,0.854C62.263,113.108,62.611,113.213,63.004,113.213z"/>
				</g>
			</g>
			<g>
				<g>
					<path d="M86.832,102.288c0.961,0,1.719,0.23,2.271,0.693c0.553,0.461,0.828,1.092,0.828,1.895c0,0.912-0.301,1.631-0.904,2.15
						c-0.6,0.52-1.43,0.779-2.488,0.779c-1.031,0-1.814-0.162-2.357-0.477v-0.967c0.291,0.182,0.654,0.32,1.088,0.426
						c0.434,0.102,0.859,0.152,1.283,0.152c0.732,0,1.301-0.164,1.709-0.502c0.406-0.332,0.605-0.814,0.605-1.451
						c0-1.23-0.779-1.848-2.34-1.848c-0.398,0-0.926,0.059-1.588,0.18l-0.537-0.338l0.344-4.131h4.541v0.926h-3.654l-0.232,2.65
						C85.879,102.336,86.357,102.288,86.832,102.288z"/>
				</g>
			</g>
			<g>
				<g>
					<path d="M108.086,88.553h-1.357v2.031h-0.99v-2.031h-4.445v-0.875l4.336-5.977h1.1v5.941h1.357V88.553z M105.738,87.643v-2.938
						c0-0.578,0.02-1.229,0.063-1.953h-0.049c-0.201,0.385-0.391,0.707-0.564,0.961l-2.855,3.93H105.738z"/>
				</g>
			</g>
			<g>
				<g>
					<path d="M113.785,60.471c0,0.564-0.168,1.025-0.492,1.385c-0.326,0.357-0.793,0.598-1.391,0.719v0.049
						c0.734,0.09,1.277,0.313,1.633,0.676c0.352,0.363,0.527,0.84,0.527,1.426c0,0.844-0.303,1.488-0.902,1.945
						c-0.605,0.451-1.463,0.678-2.574,0.678c-0.488,0-0.928-0.033-1.328-0.104c-0.402-0.074-0.797-0.195-1.172-0.371v-0.955
						c0.395,0.188,0.816,0.334,1.266,0.43c0.445,0.1,0.871,0.148,1.27,0.148c1.576,0,2.367-0.598,2.367-1.795
						c0-1.07-0.869-1.607-2.613-1.607h-0.898V62.23h0.914c0.713,0,1.273-0.152,1.695-0.457c0.414-0.305,0.625-0.725,0.625-1.266
						c0-0.432-0.154-0.77-0.463-1.016c-0.305-0.244-0.721-0.367-1.248-0.367c-0.398,0-0.775,0.051-1.127,0.156
						c-0.357,0.104-0.762,0.297-1.213,0.58l-0.525-0.676c0.377-0.289,0.807-0.514,1.299-0.676c0.486-0.164,1.004-0.244,1.543-0.244
						c0.889,0,1.578,0.195,2.07,0.588C113.535,59.248,113.785,59.787,113.785,60.471z"/>
				</g>
			</g>
			<g>
				<g>
					<path d="M107.652,43.875h-6.008v-0.863l2.406-2.338c0.734-0.717,1.219-1.229,1.449-1.535c0.234-0.305,0.41-0.605,0.525-0.896
						c0.117-0.289,0.176-0.602,0.176-0.934c0-0.473-0.148-0.846-0.443-1.123c-0.299-0.275-0.709-0.412-1.23-0.412
						c-0.379,0-0.738,0.061-1.08,0.182c-0.34,0.119-0.717,0.34-1.133,0.656l-0.553-0.682c0.846-0.676,1.762-1.014,2.75-1.014
						c0.859,0,1.533,0.211,2.021,0.635c0.488,0.426,0.729,0.998,0.729,1.713c0,0.563-0.162,1.115-0.486,1.664
						c-0.326,0.545-0.934,1.24-1.824,2.078l-2.002,1.891v0.049h4.703V43.875z"/>
				</g>
			</g>
			<g>
				<g>
					<path d="M87.809,26.783h-1.014v-6.297c0-0.523,0.018-1.018,0.051-1.488c-0.088,0.086-0.186,0.176-0.293,0.266
						c-0.111,0.096-0.605,0.486-1.49,1.182l-0.549-0.689l2.418-1.809h0.877V26.783z"/>
				</g>
			</g>
			<g>
				<g>
					<path d="M60.009,20.525h-1.014v-6.299c0-0.521,0.016-1.018,0.051-1.486c-0.086,0.086-0.184,0.174-0.295,0.266
						c-0.107,0.094-0.604,0.486-1.488,1.18l-0.549-0.689l2.42-1.807h0.875V20.525z"/>
				</g>
				<g>
					<path d="M69.488,20.525h-6.004v-0.863l2.404-2.34c0.734-0.717,1.217-1.229,1.451-1.535c0.234-0.305,0.41-0.605,0.521-0.895
						c0.117-0.291,0.176-0.602,0.176-0.938c0-0.471-0.146-0.846-0.441-1.119c-0.299-0.277-0.705-0.414-1.232-0.414
						c-0.377,0-0.738,0.061-1.078,0.182s-0.717,0.34-1.135,0.656l-0.549-0.682c0.842-0.678,1.76-1.016,2.748-1.016
						c0.861,0,1.533,0.213,2.02,0.637c0.488,0.424,0.732,0.998,0.732,1.713c0,0.561-0.164,1.115-0.488,1.664
						c-0.328,0.547-0.934,1.24-1.826,2.078l-1.998,1.891v0.049h4.699V20.525z"/>
				</g>
			</g>
		</g>
	</g>
</g>
<g id="Слой_6__x28_копия_x29_">
	<g>
		<path fill="#86B7FE" d="M68.336,125.382c-34.501,3.045-65.048-22.546-68.093-57.046C-2.803,33.835,22.789,3.289,57.29,0.243
			c34.5-3.045,65.046,22.546,68.092,57.047C128.427,91.791,102.836,122.336,68.336,125.382z M57.344,0.866
			C23.186,3.881-2.15,34.123,0.865,68.281c3.015,34.157,33.257,59.494,67.415,56.479c34.157-3.015,59.494-33.257,56.479-67.415
			C121.744,23.187,91.502-2.149,57.344,0.866z"/>
		<path fill="#1D1D1B" d="M30.061,15.561l-2.871-4.094l-0.511,0.359l2.871,4.093C29.718,15.797,29.89,15.68,30.061,15.561z
			 M5.537,67.869c-0.009-0.105-0.011-0.209-0.02-0.314l-4.971,0.438l0.055,0.623l4.971-0.438
			C5.562,68.075,5.546,67.973,5.537,67.869z M16.868,20.452l3.655,3.403c0.141-0.153,0.29-0.299,0.433-0.451l-3.662-3.409
			L16.868,20.452z M46.258,7.737l-1.462-4.768l-0.598,0.183l1.465,4.778C45.862,7.868,46.057,7.797,46.258,7.737z M35.176,12.39
			l-2.424-4.365l-0.547,0.303l2.426,4.368C34.813,12.594,34.992,12.49,35.176,12.39z M40.594,9.771l-1.952-4.589l-0.575,0.245
			l1.955,4.596C40.213,9.94,40.401,9.852,40.594,9.771z M5.333,61.538l-4.988-0.083l-0.011,0.625l4.984,0.083
			C5.319,61.953,5.328,61.746,5.333,61.538z M5.777,55.534L0.829,54.93l-0.076,0.621l4.938,0.602
			C5.715,55.945,5.751,55.741,5.777,55.534z M12.693,25.489l3.996,3.006c0.125-0.167,0.243-0.339,0.369-0.505l-3.989-3.001
			L12.693,25.489z M52.105,6.318l-0.958-4.905l-0.613,0.12l0.958,4.909C51.697,6.401,51.899,6.357,52.105,6.318z M6.851,49.611
			l-4.86-1.118l-0.14,0.609l4.853,1.116C6.749,50.015,6.802,49.814,6.851,49.611z M13.672,32.966L9.39,30.397l-0.321,0.536
			l4.288,2.572C13.463,33.326,13.564,33.144,13.672,32.966z M10.823,38.266l-4.528-2.107l-0.264,0.566l4.529,2.108
			C10.647,38.644,10.733,38.454,10.823,38.266z M8.539,43.835l-4.719-1.621l-0.203,0.591l4.716,1.62
			C8.399,44.228,8.47,44.032,8.539,43.835z M21.546,15.882l3.282,3.77c0.157-0.138,0.318-0.27,0.476-0.406l-3.286-3.774
			L21.546,15.882z M110.063,30.059l4.122-2.891l-0.358-0.511l-4.121,2.89C109.827,29.716,109.944,29.888,110.063,30.059z
			 M113.234,35.172l4.394-2.44l-0.303-0.546l-4.397,2.442C113.03,34.809,113.134,34.989,113.234,35.172z M106.378,25.303
			l3.801-3.308l-0.41-0.472l-3.796,3.304C106.11,24.983,106.242,25.145,106.378,25.303z M115.854,40.592l4.617-1.964l-0.245-0.575
			l-4.624,1.967C115.685,40.211,115.772,40.399,115.854,40.592z M119.307,52.102l4.93-0.962l-0.119-0.613l-4.936,0.963
			C119.224,51.694,119.268,51.897,119.307,52.102z M117.887,46.254l4.794-1.47l-0.184-0.598l-4.804,1.473
			C117.755,45.859,117.827,46.054,117.887,46.254z M105.651,17.268l-0.457-0.426l-3.425,3.679c0.152,0.141,0.299,0.29,0.45,0.433
			L105.651,17.268z M63.475,5.316c0.209,0.002,0.415,0.011,0.625,0.015l0.083-5.028l-0.624-0.01L63.475,5.316z M75.414,6.703
			c0.203,0.045,0.403,0.1,0.606,0.147l1.127-4.898l-0.608-0.141L75.414,6.703z M69.479,5.69c0.208,0.024,0.412,0.061,0.619,0.087
			l0.609-4.988l-0.62-0.075L69.479,5.69z M97.131,16.689c0.167,0.125,0.339,0.243,0.505,0.369l3.023-4.018l-0.5-0.375L97.131,16.689
			z M57.447,5.57c0.104-0.01,0.207-0.026,0.312-0.035c0.104-0.009,0.208-0.011,0.312-0.02l-0.44-4.986l-0.623,0.055L57.447,5.57z
			 M81.206,8.333c0.196,0.067,0.393,0.137,0.589,0.206l1.634-4.756L82.838,3.58L81.206,8.333z M92.122,13.356
			c0.18,0.106,0.361,0.208,0.54,0.316l2.589-4.315l-0.536-0.321L92.122,13.356z M86.795,10.56c0.189,0.087,0.379,0.174,0.567,0.263
			l2.123-4.563l-0.566-0.264L86.795,10.56z M42.228,121.806l0.591,0.203l1.618-4.709c-0.198-0.067-0.394-0.139-0.59-0.207
			L42.228,121.806z M104.681,102.213l3.673,3.419l0.427-0.457l-3.667-3.414C104.972,101.915,104.823,102.061,104.681,102.213z
			 M100.331,106.375l3.296,3.785l0.472-0.41l-3.293-3.781C100.65,106.106,100.488,106.238,100.331,106.375z M108.578,97.625
			l4.005,3.014l0.376-0.5l-4.013-3.019C108.821,97.287,108.704,97.458,108.578,97.625z M95.574,110.061l2.879,4.104l0.512-0.359
			l-2.878-4.104C95.917,109.824,95.746,109.942,95.574,110.061z M111.96,92.65l4.305,2.582l0.321-0.536l-4.31-2.585
			C112.171,92.291,112.069,92.472,111.96,92.65z M85.04,115.853l1.956,4.599l0.574-0.245l-1.959-4.604
			C85.42,115.684,85.231,115.772,85.04,115.853z M90.459,113.234l2.431,4.375l0.546-0.303l-2.432-4.38
			C90.822,113.029,90.643,113.133,90.459,113.234z M118.779,76.003l4.892,1.125l0.141-0.608l-4.885-1.124
			C118.881,75.599,118.827,75.8,118.779,76.003z M119.851,70.082l4.983,0.608l0.077-0.62l-4.975-0.607
			C119.913,69.67,119.876,69.875,119.851,70.082z M120.294,64.078l5.026,0.084l0.01-0.624l-5.021-0.084
			C120.307,63.663,120.299,63.87,120.294,64.078z M6.32,73.52l-4.89,0.954l0.12,0.613l4.894-0.956
			C6.403,73.927,6.358,73.725,6.32,73.52z M120.055,57.444c0.009,0.105,0.025,0.208,0.035,0.313c0.009,0.104,0.012,0.207,0.02,0.31
			l5.01-0.442l-0.055-0.623L120.055,57.444z M79.374,117.888l1.463,4.773l0.598-0.184l-1.466-4.783
			C79.769,117.757,79.574,117.829,79.374,117.888z M117.092,81.78l4.747,1.63l0.202-0.591l-4.742-1.629
			C117.231,81.387,117.161,81.583,117.092,81.78z M114.81,87.349l4.552,2.117l0.264-0.566l-4.553-2.118
			C114.985,86.97,114.899,87.161,114.81,87.349z M15.566,95.573l-4.083,2.863l0.359,0.512l4.082-2.862
			C15.803,95.916,15.685,95.744,15.566,95.573z M73.523,119.309l0.958,4.908l0.613-0.119l-0.959-4.913
			C73.931,119.226,73.729,119.27,73.523,119.309z M25.006,112.556l0.5,0.376l3-3.987c-0.167-0.125-0.339-0.242-0.505-0.368
			L25.006,112.556z M20.012,108.329l0.457,0.427l3.394-3.645c-0.154-0.142-0.3-0.29-0.452-0.433L20.012,108.329z M7.739,79.371
			l-4.753,1.457l0.183,0.598l4.763-1.461C7.871,79.765,7.799,79.571,7.739,79.371z M9.775,85.039L5.2,86.984l0.245,0.574
			l4.582-1.949C9.943,85.418,9.855,85.23,9.775,85.039z M12.393,90.456l-4.351,2.417l0.303,0.546L12.699,91
			C12.597,90.818,12.494,90.638,12.393,90.456z M19.251,100.327l-3.764,3.277l0.41,0.472l3.76-3.273
			C19.519,100.646,19.387,100.485,19.251,100.327z M61.469,125.282l0.625,0.009l0.083-4.979c-0.208-0.002-0.416-0.01-0.624-0.015
			L61.469,125.282z M67.558,120.112l0.44,4.988l0.623-0.055l-0.44-4.988c-0.104,0.009-0.206,0.025-0.311,0.035
			C67.767,120.101,67.662,120.103,67.558,120.112z M54.946,124.798l0.62,0.077l0.602-4.936c-0.207-0.024-0.412-0.061-0.619-0.087
			L54.946,124.798z M48.508,123.635l0.609,0.141l1.116-4.847c-0.204-0.046-0.405-0.101-0.608-0.148L48.508,123.635z M30.412,116.236
			l0.536,0.321l2.567-4.279c-0.179-0.106-0.361-0.208-0.54-0.316L30.412,116.236z M36.175,119.332l0.566,0.264l2.104-4.521
			c-0.189-0.087-0.378-0.173-0.567-0.263L36.175,119.332z"/>
		<path fill="#86B7FE" d="M5.767,37.292l7.947,3.698c0.255-0.571,0.515-1.14,0.789-1.701l-7.945-3.698L5.767,37.292z M32.738,18.288
			l-5.036-7.18l-1.536,1.076l5.035,7.179C31.705,18.995,32.22,18.639,32.738,18.288z M9.272,67.539
			c-0.028-0.314-0.037-0.625-0.059-0.938l-8.723,0.771l0.165,1.868l8.723-0.77C9.345,68.158,9.3,67.851,9.272,67.539z
			 M84.639,13.714c0.57,0.255,1.14,0.515,1.7,0.789l3.713-7.979l-1.699-0.791L84.639,13.714z M57.156,9.377
			c0.312-0.033,0.618-0.079,0.932-0.106c0.313-0.028,0.623-0.037,0.936-0.059l-0.771-8.738l-1.868,0.165L57.156,9.377z
			 M114.545,27.68l-1.077-1.536l-7.206,5.054c0.368,0.505,0.724,1.019,1.074,1.537L114.545,27.68z M111.13,86.325l7.968,3.708
			l0.791-1.699l-7.97-3.709C111.663,85.195,111.403,85.764,111.13,86.325z M116.248,57.153c0.033,0.312,0.078,0.619,0.106,0.934
			c0.027,0.312,0.036,0.622,0.059,0.934l8.761-0.773l-0.165-1.868L116.248,57.153z M92.898,107.333l5.043,7.19l1.534-1.076
			l-5.041-7.189C93.93,106.627,93.416,106.983,92.898,107.333z M11.125,97.924l1.077,1.534l7.167-5.026
			c-0.368-0.504-0.724-1.019-1.075-1.535L11.125,97.924z M66.604,116.416l0.771,8.739l1.868-0.165l-0.771-8.739
			c-0.312,0.032-0.618,0.078-0.932,0.106C67.227,116.384,66.917,116.393,66.604,116.416z M35.608,119.068l1.7,0.791l3.695-7.939
			c-0.571-0.254-1.141-0.515-1.702-0.789L35.608,119.068z"/>
		<g>
			<g>
				<g>
					<path d="M17.65,66.156c0.304,3.444-0.921,5.288-3.678,5.531c-0.481,0.042-0.866,0.037-1.157-0.018l-0.076-0.862
						c0.344,0.074,0.724,0.093,1.146,0.056c0.996-0.088,1.723-0.45,2.182-1.095c0.453-0.638,0.651-1.578,0.585-2.812l-0.074,0.006
						c-0.196,0.353-0.478,0.633-0.842,0.841c-0.362,0.207-0.778,0.334-1.251,0.376c-0.808,0.071-1.464-0.106-1.978-0.529
						c-0.516-0.426-0.809-1.055-0.882-1.888c-0.081-0.916,0.118-1.661,0.603-2.239c0.48-0.576,1.155-0.902,2.016-0.978
						c0.621-0.055,1.175,0.049,1.665,0.316c0.486,0.267,0.884,0.683,1.183,1.248C17.392,64.676,17.58,65.36,17.65,66.156z
						 M14.318,63.401c-0.591,0.053-1.034,0.275-1.325,0.674c-0.291,0.396-0.407,0.924-0.348,1.584
						c0.051,0.577,0.239,1.018,0.567,1.324c0.327,0.303,0.795,0.431,1.406,0.376c0.377-0.033,0.719-0.14,1.023-0.313
						c0.306-0.176,0.537-0.403,0.695-0.676c0.162-0.271,0.228-0.55,0.203-0.831c-0.038-0.423-0.157-0.801-0.356-1.146
						c-0.205-0.341-0.465-0.602-0.789-0.779C15.073,63.436,14.715,63.366,14.318,63.401z"/>
				</g>
			</g>
			<g>
				<g>
					<path d="M19.808,47.605l-1.01,0.089l-0.554-6.272c-0.045-0.52-0.074-1.015-0.08-1.485c-0.08,0.091-0.169,0.189-0.27,0.29
						c-0.099,0.103-0.559,0.538-1.379,1.306l-0.607-0.639l2.251-2.014l0.872-0.077L19.808,47.605z"/>
				</g>
				<g>
					<path d="M28.909,42.357c0.134,1.52-0.013,2.677-0.44,3.472c-0.434,0.793-1.156,1.235-2.177,1.325
						c-0.981,0.087-1.76-0.231-2.337-0.956c-0.578-0.724-0.932-1.828-1.063-3.31c-0.135-1.535,0.012-2.693,0.438-3.482
						c0.431-0.783,1.149-1.221,2.163-1.311c0.986-0.087,1.771,0.234,2.354,0.961C28.424,39.788,28.78,40.888,28.909,42.357z
						 M23.937,42.796c0.113,1.278,0.351,2.196,0.714,2.754c0.362,0.554,0.883,0.805,1.565,0.744c0.687-0.061,1.161-0.4,1.418-1.019
						c0.257-0.621,0.329-1.563,0.217-2.825c-0.112-1.265-0.347-2.179-0.708-2.739s-0.887-0.81-1.574-0.749
						c-0.683,0.06-1.152,0.394-1.412,1.001C23.897,40.572,23.823,41.514,23.937,42.796z"/>
				</g>
			</g>
			<g>
				<g>
					<path d="M22.834,85.242c0.829-0.073,1.5,0.052,2.02,0.384c0.519,0.329,0.808,0.823,0.866,1.482
						c0.038,0.432-0.065,0.839-0.313,1.224c-0.245,0.383-0.662,0.745-1.247,1.091c0.77,0.277,1.327,0.589,1.671,0.935
						c0.344,0.348,0.539,0.772,0.582,1.263c0.064,0.731-0.148,1.338-0.636,1.82c-0.489,0.48-1.191,0.764-2.107,0.845
						c-0.971,0.086-1.736-0.055-2.296-0.421c-0.56-0.364-0.872-0.923-0.938-1.678c-0.089-1.012,0.476-1.85,1.697-2.524
						c-0.602-0.263-1.04-0.561-1.321-0.904c-0.283-0.344-0.441-0.736-0.481-1.186c-0.057-0.638,0.142-1.169,0.597-1.59
						C21.378,85.558,22.013,85.314,22.834,85.242z M21.458,92.122c0.042,0.48,0.249,0.841,0.621,1.076
						c0.37,0.238,0.866,0.331,1.495,0.276c0.617-0.055,1.085-0.237,1.406-0.552c0.32-0.309,0.457-0.711,0.414-1.197
						c-0.035-0.392-0.227-0.726-0.579-0.998c-0.35-0.273-0.938-0.518-1.771-0.732c-0.594,0.313-1.016,0.636-1.269,0.972
						C21.526,91.301,21.419,91.685,21.458,92.122z M22.892,86.054c-0.519,0.045-0.916,0.2-1.188,0.467
						c-0.274,0.268-0.394,0.604-0.358,1.003c0.033,0.369,0.183,0.676,0.454,0.918c0.267,0.243,0.743,0.468,1.426,0.675
						c0.572-0.292,0.97-0.588,1.192-0.886c0.222-0.3,0.316-0.634,0.284-1.004c-0.036-0.402-0.216-0.714-0.535-0.925
						C23.844,86.089,23.417,86.007,22.892,86.054z"/>
				</g>
			</g>
			<g>
				<g>
					<path d="M35.859,29.022l-1.008,0.089l-0.554-6.272c-0.046-0.521-0.076-1.015-0.082-1.487c-0.078,0.093-0.167,0.191-0.271,0.291
						c-0.099,0.104-0.556,0.537-1.376,1.308l-0.607-0.639l2.251-2.014l0.87-0.077L35.859,29.022z"/>
				</g>
				<g>
					<path d="M43.147,28.379l-1.01,0.089l-0.554-6.272c-0.046-0.521-0.07-1.016-0.08-1.487c-0.078,0.093-0.167,0.191-0.267,0.29
						c-0.103,0.105-0.56,0.538-1.378,1.308l-0.607-0.639l2.248-2.014l0.872-0.077L43.147,28.379z"/>
				</g>
			</g>
			<g>
				<g>
					<path d="M40.88,109.798l3.077-8.213l-4.959,0.438l-0.081-0.921l6.054-0.534l0.071,0.802l-3.016,8.327L40.88,109.798z"/>
				</g>
			</g>
			<g>
				<g>
					<path d="M64.108,110.238c-0.153-1.731,0.083-3.056,0.7-3.973c0.619-0.918,1.61-1.437,2.973-1.557
						c0.469-0.042,0.84-0.035,1.119,0.015l0.075,0.86c-0.331-0.071-0.698-0.092-1.11-0.056c-0.975,0.087-1.694,0.448-2.156,1.079
						c-0.461,0.637-0.664,1.582-0.604,2.85l0.076-0.007c0.396-0.731,1.088-1.138,2.074-1.225c0.819-0.072,1.482,0.108,1.997,0.545
						c0.514,0.434,0.806,1.063,0.879,1.884c0.08,0.914-0.111,1.652-0.585,2.222c-0.469,0.571-1.146,0.896-2.025,0.973
						c-0.944,0.084-1.72-0.193-2.333-0.829C64.576,112.383,64.216,111.455,64.108,110.238z M67.435,113.001
						c0.588-0.052,1.031-0.275,1.324-0.662c0.295-0.387,0.411-0.921,0.352-1.596c-0.052-0.584-0.244-1.029-0.575-1.336
						c-0.333-0.306-0.801-0.433-1.4-0.38c-0.376,0.033-0.712,0.138-1.01,0.316c-0.298,0.174-0.527,0.399-0.687,0.679
						c-0.164,0.275-0.233,0.556-0.209,0.836c0.037,0.414,0.156,0.79,0.351,1.132c0.199,0.345,0.462,0.606,0.783,0.787
						C66.688,112.961,67.043,113.036,67.435,113.001z"/>
				</g>
			</g>
			<g>
				<g>
					<path d="M90.21,100.023c0.957-0.085,1.732,0.078,2.323,0.49c0.592,0.411,0.921,1.016,0.992,1.814
						c0.08,0.909-0.156,1.651-0.712,2.222c-0.552,0.57-1.355,0.902-2.41,0.995c-1.027,0.091-1.821-0.002-2.391-0.268l-0.085-0.963
						c0.307,0.155,0.681,0.262,1.121,0.329c0.441,0.063,0.87,0.076,1.292,0.038c0.729-0.064,1.281-0.277,1.658-0.649
						c0.375-0.367,0.531-0.865,0.476-1.499c-0.108-1.226-0.938-1.772-2.493-1.635c-0.397,0.035-0.917,0.14-1.566,0.318l-0.564-0.289
						l-0.021-4.146l4.523-0.399l0.081,0.923l-3.64,0.321l0.001,2.66C89.265,100.155,89.737,100.064,90.21,100.023z"/>
				</g>
			</g>
			<g>
				<g>
					<path d="M110.174,84.473l-1.353,0.119L109,86.616l-0.986,0.087l-0.179-2.023l-4.428,0.391l-0.077-0.871l3.794-6.335
						l1.096-0.097l0.521,5.918l1.353-0.119L110.174,84.473z M107.755,83.773l-0.258-2.927c-0.051-0.575-0.089-1.226-0.109-1.951
						l-0.049,0.005c-0.167,0.4-0.327,0.738-0.478,1.007l-2.499,4.165L107.755,83.773z"/>
				</g>
			</g>
			<g>
				<g>
					<path d="M113.382,55.998c0.05,0.562-0.077,1.036-0.368,1.422c-0.294,0.385-0.737,0.665-1.322,0.838l0.004,0.049
						c0.739,0.025,1.3,0.199,1.687,0.53c0.382,0.331,0.599,0.791,0.65,1.374c0.074,0.84-0.171,1.509-0.728,2.017
						c-0.563,0.502-1.398,0.804-2.505,0.902c-0.486,0.043-0.927,0.048-1.332,0.014c-0.407-0.039-0.812-0.125-1.2-0.267l-0.084-0.952
						c0.409,0.152,0.843,0.261,1.299,0.316c0.452,0.06,0.881,0.071,1.277,0.037c1.57-0.139,2.306-0.804,2.2-1.996
						c-0.094-1.066-1.007-1.525-2.744-1.372l-0.896,0.079l-0.075-0.861l0.91-0.08c0.71-0.063,1.255-0.264,1.648-0.604
						c0.386-0.34,0.559-0.777,0.512-1.315c-0.038-0.43-0.222-0.753-0.551-0.971c-0.325-0.216-0.75-0.302-1.275-0.256
						c-0.397,0.035-0.768,0.119-1.109,0.254c-0.347,0.135-0.732,0.363-1.157,0.685l-0.582-0.627c0.35-0.321,0.758-0.583,1.234-0.787
						c0.47-0.207,0.979-0.332,1.516-0.379c0.885-0.078,1.589,0.056,2.113,0.403C113.025,54.802,113.321,55.317,113.382,55.998z"/>
				</g>
			</g>
			<g>
				<g>
					<path d="M105.813,40.006l-5.984,0.528l-0.076-0.86l2.191-2.54c0.669-0.779,1.106-1.331,1.309-1.657
						c0.207-0.324,0.355-0.639,0.444-0.939c0.092-0.298,0.122-0.615,0.094-0.945c-0.042-0.471-0.223-0.83-0.541-1.08
						c-0.321-0.248-0.742-0.348-1.262-0.302c-0.378,0.033-0.73,0.125-1.06,0.276c-0.328,0.148-0.685,0.401-1.071,0.753l-0.61-0.63
						c0.783-0.748,1.666-1.165,2.65-1.251c0.855-0.076,1.546,0.075,2.069,0.455c0.523,0.381,0.813,0.93,0.876,1.642
						c0.05,0.561-0.063,1.125-0.338,1.701c-0.277,0.571-0.821,1.317-1.635,2.23l-1.827,2.059l0.004,0.049l4.685-0.414
						L105.813,40.006z"/>
				</g>
			</g>
			<g>
				<g>
					<path d="M84.544,24.725l-1.01,0.089l-0.554-6.272c-0.046-0.521-0.072-1.015-0.08-1.487c-0.08,0.093-0.17,0.191-0.269,0.29
						c-0.103,0.105-0.561,0.538-1.381,1.308l-0.607-0.638L82.894,16l0.873-0.077L84.544,24.725z"/>
				</g>
			</g>
			<g>
				<g>
					<path d="M56.302,20.936l-1.01,0.089l-0.554-6.274c-0.046-0.52-0.074-1.015-0.08-1.485c-0.078,0.093-0.167,0.189-0.271,0.291
						c-0.099,0.103-0.559,0.538-1.379,1.306l-0.607-0.639l2.251-2.012l0.872-0.077L56.302,20.936z"/>
				</g>
				<g>
					<path d="M65.744,20.102l-5.98,0.528l-0.076-0.86l2.189-2.542c0.668-0.779,1.104-1.331,1.311-1.657
						c0.207-0.324,0.355-0.639,0.44-0.937c0.092-0.3,0.122-0.615,0.093-0.949c-0.041-0.469-0.22-0.83-0.538-1.076
						c-0.322-0.25-0.739-0.351-1.264-0.304c-0.375,0.033-0.73,0.125-1.058,0.276c-0.328,0.15-0.684,0.401-1.073,0.753l-0.606-0.631
						c0.779-0.749,1.664-1.167,2.648-1.253c0.858-0.076,1.546,0.077,2.068,0.457c0.523,0.379,0.817,0.93,0.88,1.642
						c0.05,0.559-0.065,1.125-0.34,1.701c-0.279,0.574-0.821,1.317-1.637,2.23l-1.824,2.059l0.004,0.049l4.681-0.413L65.744,20.102z
						"/>
				</g>
			</g>
		</g>
	</g>
</g>
</svg>
